<svg width="24" height="29" viewBox="0 0 24 29" fill="#231F20" xmlns="http://www.w3.org/2000/svg">
<path fill-rule="evenodd" clip-rule="evenodd" d="M8.36803 5.55394V5.46294V5.37194C8.38184 4.35682 8.77123 3.38281 9.46103 2.63794C10.1963 1.92112 11.1692 1.49941 12.195 1.45294C13.2106 1.46678 14.1851 1.85655 14.93 2.54694C15.6468 3.28218 16.0686 4.25515 16.115 5.28094V5.55394H8.36803ZM7.63803 9.47294C7.82714 9.4858 8.00518 9.56673 8.13921 9.70076C8.27324 9.83479 8.35417 10.0128 8.36703 10.2019C8.35417 10.391 8.27324 10.5691 8.13921 10.7031C8.00518 10.8371 7.82714 10.9181 7.63803 10.9309C7.44892 10.9181 7.27088 10.8371 7.13685 10.7031C7.00282 10.5691 6.92189 10.391 6.90903 10.2019C6.90012 10.104 6.91286 10.0053 6.94635 9.91276C6.97984 9.82027 7.03325 9.73627 7.1028 9.66671C7.17236 9.59716 7.25636 9.54374 7.34885 9.51026C7.44134 9.47677 7.54007 9.46403 7.63803 9.47294ZM16.751 9.47294C16.9401 9.4858 17.1182 9.56673 17.2522 9.70076C17.3862 9.83479 17.4672 10.0128 17.48 10.2019C17.48 10.3953 17.4032 10.5807 17.2665 10.7174C17.1298 10.8541 16.9444 10.9309 16.751 10.9309C16.5577 10.9309 16.3723 10.8541 16.2355 10.7174C16.0988 10.5807 16.022 10.3953 16.022 10.2019C16.0207 10.1058 16.0386 10.0104 16.0748 9.92138C16.1109 9.83232 16.1646 9.75142 16.2325 9.68346C16.3005 9.61549 16.3814 9.56185 16.4705 9.52569C16.5595 9.48953 16.6549 9.47159 16.751 9.47294ZM16.022 8.37894V7.01194H8.36803V8.37894C8.72835 8.52505 9.03517 8.77818 9.24707 9.10418C9.45898 9.43017 9.56577 9.81333 9.55303 10.2019C9.5592 10.4551 9.51388 10.7068 9.41982 10.9419C9.32575 11.1769 9.18491 11.3905 9.00582 11.5694C8.82674 11.7484 8.61315 11.8892 8.37803 11.9831C8.14291 12.0771 7.89115 12.1222 7.63803 12.1159C7.38499 12.1221 7.13334 12.0768 6.89834 11.9828C6.66333 11.8888 6.44987 11.7481 6.27089 11.5691C6.09192 11.3901 5.95116 11.1766 5.85715 10.9416C5.76315 10.7066 5.71786 10.455 5.72403 10.2019C5.72393 9.81599 5.83585 9.4383 6.04619 9.11471C6.25654 8.79112 6.55627 8.53552 6.90903 8.37894V7.01194H4.08403C3.90203 7.01194 3.81103 7.01194 3.71903 7.10294C3.64847 7.10412 3.57906 7.12108 3.5159 7.15258C3.45275 7.18407 3.39744 7.22929 3.35403 7.28494L3.26303 7.37594C3.26303 7.46694 3.17203 7.55794 3.08103 7.64894C3.08103 7.83094 2.99003 7.92194 2.99003 8.10494L1.99003 25.9669C1.99003 26.1489 1.99003 26.2399 2.08103 26.3319C2.17203 26.4239 2.17203 26.6049 2.35403 26.6969C2.45806 26.8094 2.58175 26.9019 2.71903 26.9699C2.82615 27.0424 2.95544 27.0746 3.08403 27.0609H21.4C21.582 27.0609 21.673 27.0609 21.765 26.9699C21.857 26.8789 22.038 26.8789 22.13 26.6969C22.2425 26.5929 22.335 26.4692 22.403 26.3319C22.4755 26.2248 22.5077 26.0955 22.494 25.9669L21.4 8.10594C21.4142 7.94835 21.3826 7.79001 21.309 7.64994C21.218 7.55894 21.218 7.37694 21.036 7.28494C20.932 7.17247 20.8083 7.07995 20.671 7.01194C20.5344 6.9292 20.373 6.897 20.215 6.92094H17.39V8.28594C17.7503 8.43205 18.0572 8.68518 18.2691 9.01118C18.481 9.33717 18.5878 9.72033 18.575 10.1089C18.575 10.3603 18.5255 10.6092 18.4293 10.8414C18.3331 11.0736 18.1922 11.2846 18.0144 11.4623C17.8367 11.6401 17.6257 11.7811 17.3935 11.8772C17.1613 11.9734 16.9124 12.0229 16.661 12.0229C16.4097 12.0229 16.1608 11.9734 15.9286 11.8772C15.6964 11.7811 15.4854 11.6401 15.3076 11.4623C15.1299 11.2846 14.9889 11.0736 14.8927 10.8414C14.7965 10.6092 14.747 10.3603 14.747 10.1089C14.8024 9.7381 14.9477 9.38643 15.17 9.08456C15.3924 8.78268 15.6853 8.53976 16.023 8.37694L16.022 8.37894ZM17.48 5.55394V5.37194C17.479 3.9705 16.9219 2.62675 15.931 1.63569C14.9401 0.644635 13.5965 0.0872617 12.195 0.0859375L12.104 0.0859375C10.7083 0.11458 9.37454 0.667585 8.36803 1.63494C7.42632 2.65109 6.90494 3.98652 6.90903 5.37194V5.46294V5.55394H4.08403C3.77213 5.56151 3.4639 5.62309 3.17303 5.73594C2.87293 5.87456 2.59628 6.05911 2.35303 6.28294L2.26203 6.37394C2.07792 6.59532 1.92454 6.84053 1.80603 7.10294C1.70189 7.39628 1.64059 7.7031 1.62403 8.01394L0.530029 25.9679C0.537606 26.2798 0.599184 26.5881 0.712029 26.8789C0.828465 27.1909 1.01571 27.4716 1.25903 27.6989C1.48636 27.9423 1.76706 28.1295 2.07903 28.2459C2.37237 28.3501 2.67919 28.4114 2.99003 28.4279H21.309C21.6209 28.4204 21.9292 28.3588 22.22 28.2459C22.4934 28.1491 22.7423 27.9934 22.949 27.7899L23.04 27.6989C23.2833 27.4716 23.4706 27.1909 23.587 26.8789C23.6912 26.5856 23.7525 26.2788 23.769 25.9679L22.769 8.10594C22.7615 7.79404 22.6999 7.48581 22.587 7.19494C22.4706 6.88297 22.2833 6.60227 22.04 6.37494C21.8127 6.13162 21.532 5.94437 21.22 5.82794C20.9267 5.7238 20.6199 5.6625 20.309 5.64594H17.481L17.48 5.55394Z" />
</svg>
