<svg width="20" height="21" viewBox="0 0 20 21" fill="none" xmlns="http://www.w3.org/2000/svg">
<path d="M19.848 19.813L14.157 14.352C14.9422 13.6319 15.5691 12.7563 15.9978 11.7809C16.4264 10.8054 16.6475 9.75151 16.647 8.68605C16.5865 6.52841 15.6795 4.48121 14.1219 2.98688C12.5643 1.49254 10.4813 0.671094 8.323 0.700049C7.2511 0.673901 6.18462 0.860147 5.18503 1.24805C4.18543 1.63596 3.27249 2.21785 2.49882 2.9602C1.72514 3.70255 1.10603 4.59068 0.677163 5.57339C0.248296 6.55611 0.018154 7.61398 0 8.68605C0.018154 9.75811 0.248296 10.816 0.677163 11.7987C1.10603 12.7814 1.72514 13.6695 2.49882 14.4119C3.27249 15.1542 4.18543 15.7361 5.18503 16.124C6.18462 16.512 7.2511 16.6982 8.323 16.672C10.1161 16.6765 11.8627 16.102 13.303 15.034L19.065 20.563C19.1626 20.6508 19.2893 20.6993 19.4205 20.6993C19.5517 20.6993 19.6784 20.6508 19.776 20.563C19.8377 20.5244 19.8898 20.4721 19.928 20.4102C19.9663 20.3482 19.9899 20.2783 19.9968 20.2058C20.0038 20.1333 19.994 20.0602 19.9682 19.9921C19.9424 19.924 19.9013 19.8627 19.848 19.813ZM1.067 8.68605C1.11473 6.80352 1.90383 5.01597 3.26265 3.71221C4.62147 2.40844 6.44011 1.69392 8.323 1.72405C10.2061 1.69365 12.025 2.40806 13.384 3.71185C14.743 5.01565 15.5323 6.80334 15.58 8.68605C15.5323 10.5686 14.7432 12.3561 13.3844 13.6599C12.0255 14.9637 10.2069 15.6782 8.324 15.648C6.44431 15.6668 4.63206 14.9485 3.27557 13.6471C1.91908 12.3458 1.12626 10.5649 1.067 8.68605Z" fill="#231F20"/>
</svg>
