<svg width="24" height="29" fill="#231F20" xmlns="http://www.w3.org/2000/svg"><path fill-rule="evenodd" clip-rule="evenodd" d="M8.368 5.554v-.182a4.106 4.106 0 011.093-2.734 4.188 4.188 0 012.734-1.185 4.106 4.106 0 012.735 1.094 4.188 4.188 0 011.185 2.734v.273H8.368zm-.73 3.919a.784.784 0 01.729.729.784.784 0 01-.729.729.784.784 0 01-.729-.73.67.67 0 01.729-.728zm9.113 0a.784.784 0 01.729.729.729.729 0 11-1.458 0 .719.719 0 01.729-.73zm-.729-1.094V7.012H8.368v1.367a1.9 1.9 0 011.185 1.823 1.87 1.87 0 01-1.915 1.914 1.868 1.868 0 01-1.914-1.914 1.994 1.994 0 011.185-1.823V7.012H4.084c-.182 0-.273 0-.365.09a.473.473 0 00-.365.183l-.091.09c0 .092-.091.183-.182.274 0 .182-.091.273-.091.456l-1 17.862c0 .182 0 .273.091.365.091.092.091.273.273.365.104.112.228.205.365.273a.548.548 0 00.365.09H21.4c.182 0 .273 0 .365-.09.092-.091.273-.091.365-.273.113-.104.205-.228.273-.365a.548.548 0 00.091-.365L21.4 8.106a.822.822 0 00-.091-.456c-.091-.091-.091-.273-.273-.365a1.257 1.257 0 00-.365-.273.683.683 0 00-.456-.091H17.39v1.365a1.9 1.9 0 011.185 1.823 1.914 1.914 0 11-3.828 0 2.301 2.301 0 011.276-1.732l-.001.002zm1.458-2.825v-.182A5.29 5.29 0 0012.195.086h-.091a5.556 5.556 0 00-3.736 1.549 5.474 5.474 0 00-1.459 3.737v.182H4.084a2.7 2.7 0 00-.911.182c-.3.139-.577.323-.82.547l-.091.09a3.2 3.2 0 00-.456.73c-.104.293-.165.6-.182.91L.53 25.969c.008.312.07.62.182.91.116.313.304.594.547.82.227.244.508.431.82.548.293.104.6.165.911.182h18.319c.312-.008.62-.07.911-.182.273-.097.522-.253.729-.456l.091-.091a2.16 2.16 0 00.547-.82c.104-.293.166-.6.182-.911l-1-17.862a2.697 2.697 0 00-.182-.911 2.152 2.152 0 00-.547-.82 2.151 2.151 0 00-.82-.547 3.237 3.237 0 00-.911-.182h-2.828l-.001-.092z"/></svg>